# xmcd CD database file
#
# Track frame offsets:
#	150
#	14179
#	25660
#	42281
#	51180
#	63772
#	75783
#	87416
#	100906
#	111461
#	126120
#	138716
#	150799
#	163041
#	172812
#	184161
#	193913
#	205527
#	214891
#	228119
#	240507
#	254405
#	266504
#	275067
#	286616
#
# Disc length: 3982 seconds
#
# Revision: 1
# Processed by: cddbd v1.5.2PL0 Copyright (c) Steve Scherf et al.
# Submitted via: CDex 1.70beta2
#
DISCID=550f8c19
DTITLE=Glen Campbell - Whichita Lineman - Galvestone
DYEAR=2011
DGENRE=Country
TTITLE0=Whichita Lineman
TTITLE1=(Sittin' On) The Dock Of The Bay
TTITLE2=If You Go Away
TTITLE3=Ann
TTITLE4=Words
TTITLE5=Fate Of Man
TTITLE6=Dreams Of The Everyday Housewife
TTITLE7=The Straight Life
TTITLE8=Reason To Belive
TTITLE9=You Better Sit Down Kids
TTITLE10=That's Not Home
TTITLE11=Galveston
TTITLE12=Take My Hand For A While
TTITLE13=If This Is Love
TTITLE14=Today
TTITLE15=Got To Have Tenderness
TTITLE16=Friends
TTITLE17=It's Over
TTITLE18=Where’s The Playground Susie?
TTITLE19=Time
TTITLE20=Until It’s Time For You To Go
TTITLE21=Oh What A Woman
TTITLE22=Every Time I Itch I Wind Up Scratchin’ You
TTITLE23=Twelfth Of Never
TTITLE24=Love Me As Though There Were No Tomorrow
EXTD=YEAR: 2011
EXTT0=
EXTT1=
EXTT2=
EXTT3=
EXTT4=
EXTT5=
EXTT6=
EXTT7=
EXTT8=
EXTT9=
EXTT10=
EXTT11=
EXTT12=
EXTT13=
EXTT14=
EXTT15=
EXTT16=
EXTT17=
EXTT18=
EXTT19=
EXTT20=
EXTT21=
EXTT22=
EXTT23=
EXTT24=
PLAYORDER=
